<?xml version="1.0" encoding="utf-8"?>
<!-- Generator: Adobe Illustrator 21.0.2, SVG Export Plug-In . SVG Version: 6.00 Build 0)  -->
<svg version="1.1" id="Plan_1" xmlns="http://www.w3.org/2000/svg" xmlns:xlink="http://www.w3.org/1999/xlink" x="0px" y="0px"
	 viewBox="0 0 979.3 933.6" style="enable-background:new 0 0 979.3 933.6;" xml:space="preserve">
<style type="text/css">
	.st0{fill-rule:evenodd;clip-rule:evenodd;}
	.st1{fill-rule:evenodd;clip-rule:evenodd;fill:#EB5D35;}
	.st2{fill-rule:evenodd;clip-rule:evenodd;fill:#A8ABAD;}
	.st3{fill-rule:evenodd;clip-rule:evenodd;fill:#FFFFFF;}
	.st4{fill-rule:evenodd;clip-rule:evenodd;fill:none;stroke:#000000;stroke-width:0.216;stroke-miterlimit:22.9256;}
	.st5{fill:#EB5D35;}
	.st6{font-family:'Elephant-Regular';}
	.st7{font-size:123.4888px;}
</style>
<path class="st0" d="M826.3,378.7c8.7,20.2,23.2,84.4,39.7,111.4c10.2,16.8,14.1,48.7,20.9,68.6c9.5,28,4.1,89.8-9.8,120.4
	c-20.4,45-19.7,25.4-38.8,49.9c-25.8,25.2-29.2,28.1-84.7,44.6c-25.6,1.9-48.1,3.4-73.1,7c-26.1,3.7-44.3,8.8-67.3,15.4
	c-102.7,34.1-100.7,52-123.4,49.2c-9.8-1.2-35.3-11.6-62.9-27.9c-11.6-5.2-63.4-17.2-76.1-20.3c-54.7-13.2-57.2-7.3-99.9-18.1
	c-54.4-13.8-44.2-8-87.1-37.1c-10.5-10.4-40.1-30.9-47-44.6c-25.1-46.5-35.1-79.1-20.8-142.9c17-52.8,20.7-69.1,33.7-106.6
	c8.4-34.3,14.6-40.5,21.5-76.4c1.8-9.6,5.6-28.1,5.6-38.3c231.4,0,432.5-0.7,663.9-0.7C819.7,346.2,826.3,362.3,826.3,378.7z"/>
<path class="st0" d="M646.7,121.8c51.8,0,37.2-3.5,88.2-18.5c23-6.8,20.8-19.3,45.8-25.3c7.5-1.8,98.3,88.2,107.1,101.2
	c-2.7,10.2-18.3,35.9-24.6,44.4c-7.6,12.2-43.1,98.1-32.6,93.8l-674.9-0.5L91.9,177.5c10.4-8.4,29.3-27,39.6-35.1
	c24.7-19.5,55.9-63.4,68.3-59.9c32.2,9.4,72.7,36.1,120.5,43.3c57.8-5.8,59.2-6.6,115.6-25.9c21.3-6.5,33.1-11.2,54.7-23.3
	C528.8,96.3,589.1,121.8,646.7,121.8z"/>
<path class="st1" d="M541,446.2c0,40.2-51,19.2-118,45.6c-9.3,3.7-6.4-4.5-13.4-1.8c7.3-6,9.3-9,16.8-14.8
	c17.7-13.6,63.1-47.7,93-47.7C532.3,427.5,541,433.4,541,446.2z"/>
<path class="st2" d="M270.1,596.9l-1.3-0.3l-50.6-8.4c-0.6,0.5-1.2,1-1.8,1.4c-6.5,4.3-15.2,2.6-19.4-3.8
	c-4.2-6.3-2.3-14.9,4.2-19.2c6.5-4.3,15.2-2.6,19.4,3.8c0.8,1.1,1.3,2.3,1.7,3.6l48.6,8.5l0,0c-0.7-9.9-3.9-19.9-9.9-28.9
	c-4.5-6.9-10.2-12.5-16.6-16.8c-18.5-11.5-38.6-11.7-55.1-4.6c-1.8,0.9-3.6,1.9-5.4,3.1c-25,16.3-31.1,51.1-13.5,77.6
	c17.5,26.5,52.1,34.7,77.1,18.4C259.8,623.2,267.6,610.7,270.1,596.9L270.1,596.9z M724.9,559.6l35.4,32.6c0.8-0.1,1.5-0.2,2.3-0.2
	c7.4,0,13.5,5.6,14.1,12.7c0.3,0.5,0.5,1.2,0.5,2.2c0,8.6-16.6,20.8-26.1,7.2c-3.9-5.6-3.3-7-2.6-8.4c0-0.9,0.1-1.9,0.3-2.7
	c-0.2-0.7-0.6-1.5-1.2-2.5l-34.4-32.2l0,0c-4.9,8.6-7.7,18.7-7.7,29.5c0,8.9,1.9,17.3,5.3,24.8c2.9,6,7,11.7,12.3,16.9
	c5,4.9,10.2,8.6,15.5,11.2l0.1,0l0,0c6.5,2.9,13.6,4.5,21.1,4.5c21.7,0,40.5-13.6,49.1-33.1c2.1-7.8,4-16.1,5-22c0-0.8,0-1.5,0-2.3
	c0-8.4-1.7-16.4-4.8-23.6c-3.7-7.6-9.3-15.5-16.3-21.9c-9.2-7.5-20.7-12-33.1-12c-11.5,0-22.1,3.8-30.9,10.2c-1.5,1.4-5,5.7-6.1,6.7
	C722.9,559.2,724.5,558.2,724.9,559.6L724.9,559.6z M348.3,604.2c0.3-19.4,0.9-22.3,3.2-35.9c3.9-14.7,14.6-37.1,22.2-44
	c-23.9,7.9-55,51-69.1,71.9c-12.3,21.4-8.9,13.2-15.3,29.2l61.1,1C350,618.9,349.1,614.6,348.3,604.2L348.3,604.2z M470.1,620.1
	c4.2-18,64.1-84.4,64.1-95.5c0-23.4-58.4-21.2-74.8-21.2l2.8,20.6l9.2,2.3c4.5,1.1,6.9,2.1,12,8.3c9.2,11.3,5.6,46.4-25.7,42.3
	c-25.5-3.3-37.1-43.1-9-49.6l-5.7-22.4c-8.7,1.4-15.7,3.1-25.4,7.4c-25.1,15.9-26.1,20.2-38.7,44.8c15.5,10.3,59,55.2,67.4,70.9
	c-16.1,2.6-20,1.3-33.4,2c-31,0-51.2-0.1-51.7-5.6l-3.4-33.6c0-41.6,27.1-76.7,62.7-89.6c34.9-12.6,74.6-9.3,101.4-11.3
	c11.5-0.9,24.3-2.3,36.2-2.5C552.4,512.4,508.1,617,470.1,620.1L470.1,620.1z M528,450.4c0-11.4-6.3-17.6-17.8-17.6
	c-26.8,0-57.7,25-73.6,37.2c-6.7,5.1-16.1,10.6-21.8,18.6c8.3-2.7,3.1-1.3,10-3.2C486.1,463.2,528,486.3,528,450.4L528,450.4z
	 M576.8,407.6c4.4-4.6,11.8-11.1,19.5-12c2.9-0.7,7.8-0.2,11.5,0.9c4.8,1.5,8,4.8,9.8,7c2.3,3,6,7.8,6.7,14
	c0.4,3.5-0.7,11.1-3.4,14.7c-4.9,6.2-10.8,5.2-17.7,7l5.6,5.5l67.2,65.4c12,11.2,22.6,20.6,28.8,25.4c15.6-15.4,37-24.8,60.6-24.8
	c47.9,0,86.8,39.1,86.8,87.3c0,40.8-27.9,75.1-65.5,84.7c-1.2,0.4-2.4,0.7-3.9,0.9c-5.6,1.2-11.5,1.8-17.4,1.8
	c-6.5,0-12.8-0.7-18.9-2.1c-5.6-0.8-10.4-2.5-14.7-4.7c-24.8-10.5-43.8-32.3-50.5-59.1c-2.9-9.8-3.3-18.9-2.5-27.2
	c1-15.9,6.3-30.6,14.7-43.1c0.1-0.4,0.3-0.7,0.4-1L680,535.1c-9.7-8.4-21.9-20.2-34.1-32.5l-57-52.9l-2.4-2l-1.6-1.2
	c-1.1-0.6-4.3,0.6-5.3,3.9c0,50.4-35.1,129.6-71.5,165.1c-21.1,20.6-18.5,31.2-56.7,31.2c-40.1,0-69.4-5.3-109.5-5.3h-63.2
	c-5.5,6.7-12,12.7-19.6,17.7c-40.1,26.2-94.2,14.7-120.8-25.6c-26-39.2-16.4-91.3,21.1-118.2c7.9-5.8,13.5-9,22.8-11.7
	c36.6-12.3,78.7,1.2,101.2,35.1c5.5,8.3,9.4,17.1,11.7,26.1c1.3,2.5,2.7,5,4.1,7.6c16.5-11,16.7-14.3,21.4-23.9
	c-26.5,0-24.3-7.5-37-21.6c-17.6-23.7-18.2-16.7-19.8-33.4c-0.6-6.4,2.4-7.1,3.1-9.1c37,0,39.4,70.4,96.4,34.8l27.4-23.2
	c16.9-14.8,33.1-33.4,50.5-45.8c22.7-17.9,71.9-48.2,101.2-23.9c17.8,14.8,13.5,32.5,6.7,43.9c-2.7,4.5-8.9,6.8-9.5,9.3l21.4-2.7
	c0.2-1.9,0.5-4.1,0.8-6.6c3-19.3,11.1-54-4.6-72.1c-11.1-11.9-27.1-1.8-51.2,8.2c-7.7,3.2-11.4,6-18.1,9c-10.5,4.6-9.2,3.9-15.1-4.8
	c20.8-10.9,40.4-20.1,63.5-30c3.2-1.4,7.7-2.4,11.2-2.5c2.7-0.1,3.7-0.4,6.3,0c9.1,0.2,12.8,8.2,17,15.8
	C573.1,398,574.3,401.3,576.8,407.6z"/>
<path class="st3" d="M108.6,527.3c15.6-54.4,50.8-135,49.8-188.6h661.7c-1.7,113.1,126.8,267.8,28.2,374.8
	c-49.7,53.9-99.7,66.6-171.5,74.1c-34.7,3.6-69.2,11.8-102.5,21.6c-15.7,4.6-30.8,9.8-45.8,16c-7.1,2.9-37,19.4-39.3,19.4
	c-2.1,0-34-16.7-40.5-19.4c-35.7-15-110.8-33.3-147.2-37.3c-71.8-8-121.2-21.1-171.3-74.2C78.6,658.7,89.9,592.6,108.6,527.3
	L108.6,527.3z M199.6,89.4c10.2,5.5,17.8,12.4,29.2,17.9c43.4,20.9,67.3,24.5,117,24.3c27.9-0.1,52.1-8.1,78.2-15.5
	c10.4-3,64.2-27.6,65.3-27.6c3.6,0,82.2,43.4,144.8,43.2c67.4-0.3,89.8-8.1,144.9-42.2c15.8,10.1,37.5,34.7,52.8,47.6l53.2,47.2
	c-9.3,19.5-26,41.6-35.6,62.4c-11.1,24.1-20.1,43.7-26.6,70.3c-138.4,0-668.1,0-667,0c-6.1-24.6-15.5-49-27-71.2
	c-10.4-19.9-26.3-42.9-35-61.3L199.6,89.4L199.6,89.4z M64.4,180.5c18.9,31.4,40.9,65.7,54.9,99.9c21,51.1,20.1,73.2,4,125.4
	c-21.2,68.8-68.5,181.6-49.7,251c20.2,74.8,92.3,127.9,168.3,144.8c22.4,5,46.8,6.5,69.6,9.7c29.7,4.1,129,28.5,151.7,45.4
	c24.9,18.5,26.9,18.9,52.1-0.1c8.1-6.1,16.9-8.7,26.2-12.7c18.6-7.8,40-14.3,59.6-19.3c67.2-17.3,92.6-13.2,135.9-22.7
	c75.6-16.6,148-70.8,168-145.1c18.8-70.1-28.5-181.8-49.7-251c-16-52.2-17.1-74.4,3.9-125.5c14.4-35,35.4-66.8,55.7-99.3L780.3,60
	c-10.8,10.7-45.6,31.8-60.3,36.6c-64.8,21-101,16-165.5-3.5c-10.3-3.1-65.1-30.2-65.2-30.2c-4.1,0-77,46.1-147.4,47.1
	c-97.1,1.3-127.2-44.3-145.1-48.8L64.4,180.5z"/>
<path class="st4" d="M780.3,61.4l134.6,121.1c-20.3,32.5-41.3,64.3-55.7,99.3c-21,51.1-19.9,73.3-3.9,125.5
	c21.2,69.2,68.5,180.9,49.7,251c-19.9,74.3-92.3,128.5-168,145.1c-43.2,9.5-68.6,5.3-135.9,22.7c-19.6,5.1-41,11.5-59.6,19.3
	c-9.3,3.9-18.1,6.5-26.2,12.7c-25.3,19-27.2,18.6-52.1,0.1c-22.7-16.9-122-41.2-151.7-45.4c-22.8-3.2-47.3-4.7-69.6-9.7
	c-76-16.9-148.1-70-168.3-144.8c-18.8-69.4,28.5-182.3,49.7-251c16.1-52.3,17-74.3-4-125.4c-14-34.2-36-68.5-54.9-99.9L196.8,62.6
	c17.8,4.5,48,50.1,145.1,48.8c70.4-0.9,143.3-47.1,147.4-47.1c0.1,0,54.9,27.1,65.2,30.2C619,114,655.2,119.1,720,98
	C734.7,93.3,769.4,72.2,780.3,61.4z"/>
<text transform="matrix(0.8104 0 0 1 1203.3766 489.6065)"><tspan x="0" y="0" class="st5 st6" style="font-size:105.5889px;">0</tspan><tspan x="80" y="0" class="st5 st6" style="font-size:105.5889px;">6 12 26 08 51</tspan></text>
<text transform="matrix(0.8355 0 0 1 157.993 236.2955)"><tspan x="0" y="0" class="st5 st6 st7">F</tspan><tspan x="96.8" y="0" class="st5 st6 st7">aty Concept</tspan></text>
</svg>
